# xmcd
# Copyright (C) 1995-1998 Ti Kan
#
# Track frame offsets:
#       150
#       16202
#       46330
#       63022
#       77205
#       89940
#       92440
#       116257
#       118627
#       131347
#       143597
#       161470
#       169735
#       185675
#       210507
#       227287
#       242050
#       260785
#
# Disc length: 4233 seconds
#
# Revision: 0
# Processed by: cddbd v1.5.2PL0 Copyright (c) Steve Scherf et al.
# Submitted via: CD-Import v1.0
#
DISCID=e6108712
DTITLE=Frank Zappa  - Sheik Yerbouti
DYEAR=1979
DGENRE=
TTITLE0=I Have Been In You
TTITLE1=Flakes
TTITLE2=Broken Hearts Are For Assholes
TTITLE3=I'm So Cute
TTITLE4=Jones Crusher
TTITLE5=What Ever Happened To All The Fun In The World
TTITLE6=Rat Tomago
TTITLE7=Wait A Minute
TTITLE8=Bobby Brown Goes Down
TTITLE9=Rubber Shit
TTITLE10=The Sheik Yerbouti
TTITLE11=Babby Snakes
TTITLE12=Trying To Grow A Chin
TTITLE13=City Of Tiny Lites
TTITLE14=Dancin'fool
TTITLE15=Jewis Princess
TTITLE16=Wild Love
TTITLE17=Yo Mama
EXTD=
EXTT0=
EXTT1=
EXTT2=
EXTT3=
EXTT4=
EXTT5=
EXTT6=
EXTT7=
EXTT8=
EXTT9=
EXTT10=
EXTT11=
EXTT12=
EXTT13=
EXTT14=
EXTT15=
EXTT16=
EXTT17=
PLAYORDER=
